REM DIRINDEX 1\2,1\3,1\4,1\5,1\6,1\7,1\8
REM DIRNAME folder01,folder02,folder03,folder04,folder05,folder06,folder07,folder08
TITLE ""
FILE "11_Ch3_Working_Words.mp3" MP3
  TRACK 01 AUDIO
    TITLE "0:"
    INDEX 01 00:00:00
  TRACK 02 AUDIO
    TITLE "8:cjc152_0519"
    INDEX 01 00:00:31
  TRACK 03 AUDIO
    TITLE "0:"
    INDEX 01 00:03:15
  TRACK 04 AUDIO
    TITLE "8:cjc152_0520"
    INDEX 01 00:03:74
  TRACK 05 AUDIO
    TITLE "0:"
    INDEX 01 00:05:16
  TRACK 06 AUDIO
    TITLE "2:cjc152_0521"
    INDEX 01 00:06:08
  TRACK 07 AUDIO
    TITLE "0:"
    INDEX 01 00:07:49
  TRACK 08 AUDIO
    TITLE "2:cjc152_0522"
    INDEX 01 00:08:05
  TRACK 09 AUDIO
    TITLE "0:"
    INDEX 01 00:09:28
  TRACK 10 AUDIO
    TITLE "2:cjc152_0523"
    INDEX 01 00:10:12
  TRACK 11 AUDIO
    TITLE "0:"
    INDEX 01 00:11:40
  TRACK 12 AUDIO
    TITLE "2:cjc152_0524"
    INDEX 01 00:11:72
  TRACK 13 AUDIO
    TITLE "0:"
    INDEX 01 00:13:30
  TRACK 14 AUDIO
    TITLE "2:cjc152_0525"
    INDEX 01 00:14:13
  TRACK 15 AUDIO
    TITLE "0:"
    INDEX 01 00:15:19
  TRACK 16 AUDIO
    TITLE "2:cjc152_0526"
    INDEX 01 00:15:48
  TRACK 17 AUDIO
    TITLE "0:"
    INDEX 01 00:17:25
  TRACK 18 AUDIO
    TITLE "2:cjc152_0527"
    INDEX 01 00:18:09
  TRACK 19 AUDIO
    TITLE "0:"
    INDEX 01 00:19:16
  TRACK 20 AUDIO
    TITLE "2:cjc152_0528"
    INDEX 01 00:19:48
  TRACK 21 AUDIO
    TITLE "0:"
    INDEX 01 00:21:21
  TRACK 22 AUDIO
    TITLE "2:cjc152_0529"
    INDEX 01 00:22:05
  TRACK 23 AUDIO
    TITLE "0:"
    INDEX 01 00:23:18
  TRACK 24 AUDIO
    TITLE "2:cjc152_0530"
    INDEX 01 00:23:50
  TRACK 25 AUDIO
    TITLE "0:"
    INDEX 01 00:24:67
  TRACK 26 AUDIO
    TITLE "2:cjc152_0531"
    INDEX 01 00:25:48
  TRACK 27 AUDIO
    TITLE "0:"
    INDEX 01 00:26:67
  TRACK 28 AUDIO
    TITLE "2:cjc152_0532"
    INDEX 01 00:27:24
  TRACK 29 AUDIO
    TITLE "0:"
    INDEX 01 00:28:53
  TRACK 30 AUDIO
    TITLE "2:cjc152_0533"
    INDEX 01 00:29:36
  TRACK 31 AUDIO
    TITLE "0:"
    INDEX 01 00:30:34
  TRACK 32 AUDIO
    TITLE "2:cjc152_0534"
    INDEX 01 00:30:65
  TRACK 33 AUDIO
    TITLE "0:"
    INDEX 01 00:32:05
  TRACK 34 AUDIO
    TITLE "2:cjc152_0535"
    INDEX 01 00:32:64
  TRACK 35 AUDIO
    TITLE "0:"
    INDEX 01 00:34:30
  TRACK 36 AUDIO
    TITLE "2:cjc152_0536"
    INDEX 01 00:34:59
  TRACK 37 AUDIO
    TITLE "0:"
    INDEX 01 00:36:60
  TRACK 38 AUDIO
    TITLE "2:cjc152_0537"
    INDEX 01 00:37:44
  TRACK 39 AUDIO
    TITLE "0:"
    INDEX 01 00:38:69
  TRACK 40 AUDIO
    TITLE "2:cjc152_0538"
    INDEX 01 00:39:31
  TRACK 41 AUDIO
    TITLE "0:"
    INDEX 01 00:40:42
  TRACK 42 AUDIO
    TITLE "2:cjc152_0539"
    INDEX 01 00:41:24
  TRACK 43 AUDIO
    TITLE "0:"
    INDEX 01 00:42:33
  TRACK 44 AUDIO
    TITLE "2:cjc152_0540"
    INDEX 01 00:42:63
  TRACK 45 AUDIO
    TITLE "0:"
    INDEX 01 00:43:68
  TRACK 46 AUDIO
    TITLE "2:cjc152_0541"
    INDEX 01 00:44:52
  TRACK 47 AUDIO
    TITLE "0:"
    INDEX 01 00:45:39
  TRACK 48 AUDIO
    TITLE "2:cjc152_0542"
    INDEX 01 00:45:71
  TRACK 49 AUDIO
    TITLE "0:"
    INDEX 01 00:47:11
  TRACK 50 AUDIO
    TITLE "2:cjc152_0543"
    INDEX 01 00:47:68
  TRACK 51 AUDIO
    TITLE "0:"
    INDEX 01 00:49:06
  TRACK 52 AUDIO
    TITLE "2:cjc152_0544"
    INDEX 01 00:49:37
  TRACK 53 AUDIO
    TITLE "0:"
    INDEX 01 00:50:44
  TRACK 54 AUDIO
    TITLE "2:cjc152_0545"
    INDEX 01 00:51:28
  TRACK 55 AUDIO
    TITLE "0:"
    INDEX 01 00:52:26
  TRACK 56 AUDIO
    TITLE "2:cjc152_0546"
    INDEX 01 00:52:55
  TRACK 57 AUDIO
    TITLE "0:"
    INDEX 01 00:54:01
  TRACK 58 AUDIO
    TITLE "2:cjc152_0547"
    INDEX 01 00:54:60
  TRACK 59 AUDIO
    TITLE "0:"
    INDEX 01 00:56:10
  TRACK 60 AUDIO
    TITLE "2:cjc152_0548"
    INDEX 01 00:56:39
  TRACK 61 AUDIO
    TITLE "0:"
    INDEX 01 00:57:52
  TRACK 62 AUDIO
    TITLE "2:cjc152_0549"
    INDEX 01 00:58:36
  TRACK 63 AUDIO
    TITLE "0:"
    INDEX 01 00:59:69
  TRACK 64 AUDIO
    TITLE "2:cjc152_0550"
    INDEX 01 01:00:25
  TRACK 65 AUDIO
    TITLE "0:"
    INDEX 01 01:02:10
  TRACK 66 AUDIO
    TITLE "2:cjc152_0551"
    INDEX 01 01:02:71
  TRACK 67 AUDIO
    TITLE "0:"
    INDEX 01 01:04:25
  TRACK 68 AUDIO
    TITLE "2:cjc152_0552"
    INDEX 01 01:04:54
  TRACK 69 AUDIO
    TITLE "0:"
    INDEX 01 01:05:71
  TRACK 70 AUDIO
    TITLE "2:cjc152_0553"
    INDEX 01 01:06:55
  TRACK 71 AUDIO
    TITLE "0:"
    INDEX 01 01:07:63
  TRACK 72 AUDIO
    TITLE "2:cjc152_0554"
    INDEX 01 01:08:17
  TRACK 73 AUDIO
    TITLE "0:"
    INDEX 01 01:09:52
  TRACK 74 AUDIO
    TITLE "2:cjc152_0555"
    INDEX 01 01:10:35
  TRACK 75 AUDIO
    TITLE "0:"
    INDEX 01 01:11:51
  TRACK 76 AUDIO
    TITLE "2:cjc152_0556"
    INDEX 01 01:12:05
  TRACK 77 AUDIO
    TITLE "0:"
    INDEX 01 01:13:49
  TRACK 78 AUDIO
    TITLE "2:cjc152_0557"
    INDEX 01 01:14:33
  TRACK 79 AUDIO
    TITLE "0:"
    INDEX 01 01:15:44
  TRACK 80 AUDIO
    TITLE "2:cjc152_0558"
    INDEX 01 01:16:01
  TRACK 81 AUDIO
    TITLE "0:"
    INDEX 01 01:17:14
  TRACK 82 AUDIO
    TITLE "2:cjc152_0559"
    INDEX 01 01:17:73
  TRACK 83 AUDIO
    TITLE "0:"
    INDEX 01 01:19:27
  TRACK 84 AUDIO
    TITLE "2:cjc152_0560"
    INDEX 01 01:19:54
  TRACK 85 AUDIO
    TITLE "0:"
    INDEX 01 01:21:20
  TRACK 86 AUDIO
    TITLE "2:cjc152_0561"
    INDEX 01 01:22:01
  TRACK 87 AUDIO
    TITLE "0:"
    INDEX 01 01:23:26
  TRACK 88 AUDIO
    TITLE "2:cjc152_0562"
    INDEX 01 01:23:58
  TRACK 89 AUDIO
    TITLE "0:"
    INDEX 01 01:25:08
  TRACK 90 AUDIO
    TITLE "2:cjc152_0563"
    INDEX 01 01:25:66
  TRACK 91 AUDIO
    TITLE "0:"
    INDEX 01 01:26:70
  TRACK 92 AUDIO
    TITLE "2:cjc152_0564"
    INDEX 01 01:27:24
  TRACK 93 AUDIO
    TITLE "0:"
    INDEX 01 01:28:49
  TRACK 94 AUDIO
    TITLE "2:cjc152_0565"
    INDEX 01 01:29:33
  TRACK 95 AUDIO
    TITLE "0:"
    INDEX 01 01:30:69
  TRACK 96 AUDIO
    TITLE "2:cjc152_0566"
    INDEX 01 01:31:26
  TRACK 97 AUDIO
    TITLE "0:"
    INDEX 01 01:32:55
